<svg width="94" height="94" viewBox="0 0 94 94" fill="none" xmlns="http://www.w3.org/2000/svg">
<rect width="94" height="94" rx="16" fill="#92C3F5"/>
<path d="M43.4792 48.9635L41.1772 45.5104C40.9515 45.1493 40.6355 44.8559 40.2292 44.6302C39.823 44.4045 39.3942 44.2917 38.9428 44.2917H21.2032C20.7067 43.1181 20.3681 41.9896 20.1876 40.9063C20.007 39.8229 19.9167 38.6944 19.9167 37.5208C19.9167 33.2778 21.3386 29.7344 24.1824 26.8906C27.0261 24.0469 30.5695 22.625 34.8126 22.625C37.1598 22.625 39.3942 23.1215 41.5157 24.1146C43.6372 25.1076 45.4654 26.5069 47.0001 28.3125C48.5348 26.5069 50.3629 25.1076 52.4845 24.1146C54.606 23.1215 56.8404 22.625 59.1876 22.625C63.4306 22.625 66.974 24.0469 69.8178 26.8906C72.6615 29.7344 74.0834 33.2778 74.0834 37.5208C74.0834 38.6944 73.9931 39.8229 73.8126 40.9063C73.632 41.9896 73.2935 43.1181 72.797 44.2917H56.6824L52.0105 37.3854C51.7397 36.9792 51.3903 36.6749 50.9624 36.4727C50.5345 36.2705 50.0713 36.1685 49.573 36.1667C48.9862 36.1667 48.4788 36.3364 48.0509 36.6758C47.623 37.0153 47.3179 37.4549 47.1355 37.9948L43.4792 48.9635ZM47.0001 72.3229L43.073 68.8021C38.3334 64.559 34.4515 60.9254 31.4272 57.901C28.4029 54.8767 26.0331 52.1458 24.3178 49.7083H37.3178L41.9897 56.6146C42.2605 57.0208 42.6108 57.326 43.0405 57.53C43.4702 57.734 43.9324 57.8351 44.4272 57.8333C45.014 57.8333 45.5222 57.6645 45.952 57.3269C46.3817 56.9892 46.6859 56.5487 46.8647 56.0052L50.5209 44.9688L52.8907 48.4896C53.1164 48.8507 53.4324 49.1441 53.8386 49.3698C54.2449 49.5955 54.6737 49.7083 55.1251 49.7083H69.6824C67.9671 52.1458 65.5973 54.8767 62.573 57.901C59.5487 60.9254 55.6667 64.559 50.9272 68.8021L47.0001 72.3229Z" fill="#3698FD"/>
</svg>
