<svg width="32" height="32" viewBox="0 0 32 32" fill="none" xmlns="http://www.w3.org/2000/svg">
<rect width="32" height="32" rx="8" fill="#F5F5F5" fill-opacity="0.68"/>
<path d="M16 23.7498C15.8012 23.7496 15.6105 23.6705 15.47 23.5298L8.70001 16.7398C7.78387 15.8052 7.27072 14.5486 7.27072 13.2398C7.27072 11.9311 7.78387 10.6745 8.70001 9.73981C9.6283 8.81162 10.8873 8.29017 12.2 8.29017C13.5127 8.29017 14.7717 8.81162 15.7 9.73981L16 9.99981L16.28 9.71981C16.739 9.25581 17.2857 8.88777 17.8883 8.63711C18.4909 8.38646 19.1374 8.2582 19.79 8.25982C20.442 8.25689 21.088 8.38358 21.6906 8.6325C22.2931 8.88142 22.8402 9.24762 23.3 9.70981C24.2161 10.6445 24.7293 11.9011 24.7293 13.2098C24.7293 14.5186 24.2161 15.7752 23.3 16.7098L16.53 23.4998C16.463 23.5749 16.3815 23.6358 16.2904 23.6787C16.1994 23.7217 16.1006 23.7458 16 23.7498ZM12.21 9.74981C11.7558 9.74651 11.3055 9.83317 10.885 10.0048C10.4645 10.1764 10.0821 10.4296 9.76001 10.7498C9.11088 11.402 8.74646 12.2847 8.74646 13.2048C8.74646 14.125 9.11088 15.0077 9.76001 15.6598L16 21.9398L22.23 15.6798C22.5526 15.3575 22.8086 14.9748 22.9832 14.5536C23.1578 14.1324 23.2477 13.6808 23.2477 13.2248C23.2477 12.7688 23.1578 12.3173 22.9832 11.896C22.8086 11.4748 22.5526 11.0921 22.23 10.7698C21.9104 10.449 21.5299 10.1954 21.1109 10.0236C20.6919 9.85191 20.2428 9.76561 19.79 9.76981C19.3358 9.76651 18.8855 9.85317 18.465 10.0248C18.0445 10.1964 17.6621 10.4496 17.34 10.7698L16.53 11.5798C16.3869 11.7156 16.1972 11.7912 16 11.7912C15.8028 11.7912 15.6131 11.7156 15.47 11.5798L14.66 10.7698C14.3395 10.446 13.9579 10.1891 13.5373 10.014C13.1167 9.83894 12.6656 9.74913 12.21 9.74981Z" fill="#18A0B0"/>
</svg>
