<svg width="94" height="94" viewBox="0 0 94 94" fill="none" xmlns="http://www.w3.org/2000/svg">
<rect width="94" height="94" rx="16" fill="#F899BC"/>
<path d="M26.667 59.7083L39.3753 62.25L41.2816 58.4375M54.6253 69.875V59.7083L44.4587 52.0833L47.0003 36.8333M47.0003 26.6667C47.0003 27.3408 47.2681 27.9872 47.7448 28.4639C48.2214 28.9406 48.8679 29.2083 49.542 29.2083C50.2161 29.2083 50.8626 28.9406 51.3392 28.4639C51.8159 27.9872 52.0837 27.3408 52.0837 26.6667C52.0837 25.9926 51.8159 25.3461 51.3392 24.8694C50.8626 24.3928 50.2161 24.125 49.542 24.125C48.8679 24.125 48.2214 24.3928 47.7448 24.8694C47.2681 25.3461 47.0003 25.9926 47.0003 26.6667Z" stroke="#FF5B97" stroke-width="6" stroke-linecap="round" stroke-linejoin="round"/>
<path d="M34.292 46.9997V39.3747L47.0003 36.833L54.6253 44.458L62.2503 46.9997" stroke="#FF5B97" stroke-width="6" stroke-linecap="round" stroke-linejoin="round"/>
</svg>
