<svg width="94" height="94" viewBox="0 0 94 94" fill="none" xmlns="http://www.w3.org/2000/svg">
<rect width="94" height="94" rx="16" fill="#A2B0F5"/>
<path d="M49.5 69.5L52 47M52 47L69.5 32M52 47L39.5 44.5H24.5M45.75 38.25L57 29.5" stroke="#5673FC" stroke-width="4" stroke-linecap="round" stroke-linejoin="round"/>
<path d="M35 34.25C35 34.8467 35.2371 35.419 35.659 35.841C36.081 36.2629 36.6533 36.5 37.25 36.5C37.8467 36.5 38.419 36.2629 38.841 35.841C39.2629 35.419 39.5 34.8467 39.5 34.25C39.5 33.6533 39.2629 33.081 38.841 32.659C38.419 32.2371 37.8467 32 37.25 32C36.6533 32 36.081 32.2371 35.659 32.659C35.2371 33.081 35 33.6533 35 34.25Z" fill="#5673FC"/>
<path d="M35 34.25C35 34.8467 35.2371 35.419 35.659 35.841C36.081 36.2629 36.6533 36.5 37.25 36.5C37.8467 36.5 38.419 36.2629 38.841 35.841C39.2629 35.419 39.5 34.8467 39.5 34.25C39.5 33.6533 39.2629 33.081 38.841 32.659C38.419 32.2371 37.8467 32 37.25 32C36.6533 32 36.081 32.2371 35.659 32.659C35.2371 33.081 35 33.6533 35 34.25Z" fill="#5673FC"/>
<path d="M35 34.25C35 34.8467 35.2371 35.419 35.659 35.841C36.081 36.2629 36.6533 36.5 37.25 36.5C37.8467 36.5 38.419 36.2629 38.841 35.841C39.2629 35.419 39.5 34.8467 39.5 34.25C39.5 33.6533 39.2629 33.081 38.841 32.659C38.419 32.2371 37.8467 32 37.25 32C36.6533 32 36.081 32.2371 35.659 32.659C35.2371 33.081 35 33.6533 35 34.25Z" stroke="#5673FC" stroke-width="6" stroke-linecap="round" stroke-linejoin="round"/>
<path d="M35 34.25C35 34.8467 35.2371 35.419 35.659 35.841C36.081 36.2629 36.6533 36.5 37.25 36.5C37.8467 36.5 38.419 36.2629 38.841 35.841C39.2629 35.419 39.5 34.8467 39.5 34.25C39.5 33.6533 39.2629 33.081 38.841 32.659C38.419 32.2371 37.8467 32 37.25 32C36.6533 32 36.081 32.2371 35.659 32.659C35.2371 33.081 35 33.6533 35 34.25Z" stroke="#5673FC" stroke-width="6" stroke-linecap="round" stroke-linejoin="round"/>
</svg>
