<svg width="24" height="24" viewBox="0 0 24 24" fill="none" xmlns="http://www.w3.org/2000/svg">
<path d="M11.9902 20.3848C11.8915 20.3854 11.7937 20.3664 11.7023 20.3291C11.6109 20.2918 11.5278 20.2368 11.4577 20.1673L6.82273 15.5323C6.75244 15.4626 6.69664 15.3796 6.65857 15.2882C6.62049 15.1968 6.60089 15.0988 6.60089 14.9998C6.60089 14.9008 6.62049 14.8028 6.65857 14.7114C6.69664 14.62 6.75244 14.537 6.82273 14.4673C6.96326 14.3276 7.15335 14.2492 7.35148 14.2492C7.54962 14.2492 7.73971 14.3276 7.88024 14.4673L11.9902 18.5773L18.3802 12.1873C18.7896 11.8083 19.1183 11.3506 19.3466 10.8416C19.575 10.3326 19.6983 9.78279 19.7092 9.22503C19.7201 8.66727 19.6184 8.11304 19.4101 7.59551C19.2019 7.07798 18.8913 6.60778 18.4971 6.21306C18.1029 5.81833 17.6331 5.50719 17.1158 5.29826C16.5986 5.08933 16.0445 4.9869 15.4867 4.9971C14.9289 5.0073 14.3789 5.12991 13.8697 5.35761C13.3604 5.58532 12.9023 5.91342 12.5227 6.32229C12.453 6.39259 12.3701 6.44838 12.2787 6.48646C12.1873 6.52454 12.0892 6.54414 11.9902 6.54414C11.8912 6.54414 11.7932 6.52454 11.7018 6.48646C11.6104 6.44838 11.5275 6.39259 11.4577 6.32229C10.8074 5.67539 9.96099 5.26233 9.0509 5.14773C8.14081 5.03313 7.21841 5.22347 6.42802 5.68896C5.63763 6.15445 5.02385 6.86882 4.68272 7.72031C4.3416 8.57179 4.29237 9.51235 4.54273 10.3948C4.58033 10.5803 4.54639 10.7732 4.44772 10.9347C4.34905 11.0962 4.19295 11.2145 4.01073 11.2657C3.82852 11.317 3.63367 11.2974 3.46526 11.211C3.29686 11.1246 3.16735 10.9777 3.10273 10.7998C2.77586 9.65582 2.81912 8.43777 3.22633 7.31987C3.63355 6.20197 4.38385 5.24148 5.36993 4.57577C6.35601 3.91006 7.52736 3.57324 8.71644 3.61348C9.90551 3.65371 11.0514 4.06895 11.9902 4.79979C13.1218 3.901 14.5552 3.47084 15.9947 3.59809C17.4342 3.72534 18.7699 4.40028 19.7263 5.48365C20.6827 6.56701 21.1867 7.97615 21.1344 9.4203C21.0821 10.8645 20.4775 12.2334 19.4452 13.2448L12.5227 20.1673C12.4527 20.2368 12.3695 20.2918 12.2782 20.3291C12.1868 20.3664 12.0889 20.3854 11.9902 20.3848ZM13.4377 15.2773L14.7502 11.9998H16.4902C16.6891 11.9998 16.8799 11.9208 17.0206 11.7801C17.1612 11.6395 17.2402 11.4487 17.2402 11.2498C17.2402 11.0509 17.1612 10.8601 17.0206 10.7195C16.8799 10.5788 16.6891 10.4998 16.4902 10.4998H14.2402C14.09 10.4996 13.9432 10.5446 13.8189 10.6289C13.6945 10.7131 13.5983 10.8327 13.5427 10.9723L12.7927 12.8173L11.2402 8.00979C11.1909 7.85974 11.0955 7.72909 10.9675 7.63647C10.8396 7.54384 10.6857 7.49398 10.5277 7.49398C10.3698 7.49398 10.2159 7.54384 10.0879 7.63647C9.95999 7.72909 9.86455 7.85974 9.81524 8.00979L8.45023 11.9998H2.24023C2.04132 11.9998 1.85056 12.0788 1.7099 12.2195C1.56925 12.3601 1.49023 12.5509 1.49023 12.7498C1.49023 12.9487 1.56925 13.1395 1.7099 13.2801C1.85056 13.4208 2.04132 13.4998 2.24023 13.4998H8.99023C9.14747 13.5002 9.30085 13.4512 9.42871 13.3597C9.55656 13.2681 9.65242 13.1388 9.70273 12.9898L10.4902 10.6198L12.0277 15.2398C12.078 15.3888 12.1739 15.5181 12.3018 15.6097C12.4296 15.7012 12.583 15.7502 12.7402 15.7498C12.8904 15.7499 13.0372 15.705 13.1616 15.6207C13.286 15.5365 13.3822 15.4168 13.4377 15.2773Z" fill="#063146"/>
</svg>
