<svg width="24" height="24" viewBox="0 0 24 24" fill="none" xmlns="http://www.w3.org/2000/svg">
<path fill-rule="evenodd" clip-rule="evenodd" d="M11.285 2.64646C11.142 2.50346 10.9269 2.46068 10.7401 2.53807C10.5533 2.61547 10.4314 2.79778 10.4314 3.00001C10.4314 5.89739 8.81275 7.55446 7.52069 8.87717L7.3969 9.00398L7.39662 9.00427C6.00391 10.4356 5.13733 12.6588 5.13733 14.6471C5.13733 16.4646 5.85933 18.2077 7.14451 19.4928C8.42968 20.778 10.1728 21.5 11.9903 21.5C13.8078 21.5 15.5509 20.778 16.836 19.4928C18.1212 18.2077 18.8432 16.4646 18.8432 14.6471C18.8432 13.742 18.5369 12.6291 18.1214 11.6219C17.7048 10.6121 17.1495 9.63858 16.599 9.02042C16.493 8.90142 16.3366 8.84006 16.178 8.85523C16.0194 8.87039 15.8775 8.96026 15.7959 9.09718C15.3319 9.87656 14.9296 10.4421 14.5738 10.839C14.2162 11.2378 13.9265 11.4425 13.6933 11.5357C13.3786 11.6615 13.0708 11.6181 12.6547 11.3444C13.5669 9.71248 13.5212 7.87724 13.1372 6.33618C12.7238 4.67691 11.8931 3.25456 11.285 2.64646ZM8.26422 9.54725C9.36008 8.42745 10.8801 6.87426 11.3125 4.40192C11.6354 4.98576 11.9579 5.7394 12.1669 6.57796C12.5448 8.09467 12.526 9.78458 11.576 11.1907C11.4319 11.404 11.4732 11.6918 11.6716 11.8559C12.3483 12.4156 13.1354 12.8355 14.0643 12.4643C14.4936 12.2928 14.9045 11.9681 15.3183 11.5066C15.6201 11.17 15.9347 10.7479 16.2688 10.2321C16.5948 10.7181 16.923 11.3391 17.197 12.0033C17.5904 12.957 17.8432 13.9301 17.8432 14.6471C17.8432 16.1994 17.2266 17.6881 16.1289 18.7857C15.0313 19.8834 13.5426 20.5 11.9903 20.5C10.438 20.5 8.94926 19.8834 7.85162 18.7857C6.75398 17.6881 6.13733 16.1994 6.13733 14.6471C6.13733 12.9083 6.90981 10.9385 8.11333 9.70164L8.26422 9.54725ZM8.22215 13.972V17H8.74615V16.336L9.02806 16.0335L9.63815 17H10.2381L9.41815 15.7L10.2221 14.824H9.57015L8.74615 15.6866V13.972H8.22215ZM10.5517 16.492C10.6503 16.6627 10.785 16.7987 10.9557 16.9C11.129 16.9987 11.3237 17.048 11.5397 17.048C11.697 17.048 11.8423 17.0213 11.9757 16.968C12.109 16.912 12.2237 16.836 12.3197 16.74C12.4157 16.6413 12.485 16.5307 12.5277 16.408L12.0677 16.2C12.0277 16.312 11.961 16.4013 11.8677 16.468C11.7743 16.5347 11.665 16.568 11.5397 16.568C11.425 16.568 11.3223 16.54 11.2317 16.484C11.1437 16.428 11.0743 16.3507 11.0237 16.252C10.973 16.1533 10.9477 16.04 10.9477 15.912C10.9477 15.784 10.973 15.6707 11.0237 15.572C11.0743 15.4733 11.1437 15.396 11.2317 15.34C11.3223 15.284 11.425 15.256 11.5397 15.256C11.6623 15.256 11.7703 15.2893 11.8637 15.356C11.9597 15.4227 12.0277 15.5107 12.0677 15.62L12.5277 15.42C12.485 15.2893 12.4143 15.1773 12.3157 15.084C12.2197 14.988 12.105 14.9133 11.9717 14.86C11.8383 14.804 11.6943 14.776 11.5397 14.776C11.3237 14.776 11.129 14.8253 10.9557 14.924C10.785 15.0227 10.6503 15.1573 10.5517 15.328C10.453 15.4987 10.4037 15.692 10.4037 15.908C10.4037 16.124 10.453 16.3187 10.5517 16.492ZM13.1815 16.972C13.2935 17.0227 13.4255 17.048 13.5775 17.048C13.6975 17.048 13.8068 17.032 13.9055 17C14.0041 16.9653 14.0921 16.9173 14.1695 16.856C14.2005 16.8303 14.2298 16.8022 14.2575 16.7718V17H14.7535V15.552C14.7535 15.3973 14.7148 15.2627 14.6375 15.148C14.5628 15.0307 14.4575 14.94 14.3215 14.876C14.1855 14.8093 14.0281 14.776 13.8495 14.776C13.7028 14.776 13.5668 14.8 13.4415 14.848C13.3161 14.896 13.2068 14.9627 13.1135 15.048C13.0228 15.1307 12.9561 15.2293 12.9135 15.344L13.3415 15.552C13.3815 15.4533 13.4441 15.3747 13.5295 15.316C13.6175 15.2547 13.7175 15.224 13.8295 15.224C13.9495 15.224 14.0455 15.256 14.1175 15.32C14.1921 15.3813 14.2295 15.4587 14.2295 15.552V15.6224L13.5815 15.728C13.4108 15.7547 13.2695 15.8 13.1575 15.864C13.0455 15.928 12.9628 16.008 12.9095 16.104C12.8561 16.1973 12.8295 16.304 12.8295 16.424C12.8295 16.5493 12.8601 16.66 12.9215 16.756C12.9828 16.8493 13.0695 16.9213 13.1815 16.972ZM14.2295 16.0229L13.6815 16.116C13.5775 16.1347 13.5001 16.168 13.4495 16.216C13.3988 16.264 13.3735 16.3267 13.3735 16.404C13.3735 16.4787 13.4015 16.5387 13.4575 16.584C13.5161 16.6267 13.5881 16.648 13.6735 16.648C13.7828 16.648 13.8788 16.6253 13.9615 16.58C14.0468 16.532 14.1121 16.4667 14.1575 16.384C14.2055 16.3013 14.2295 16.2107 14.2295 16.112V16.0229ZM15.2378 13.972V17H15.7618V13.972H15.2378Z" fill="#063146"/>
</svg>
