<svg width="94" height="94" viewBox="0 0 94 94" fill="none" xmlns="http://www.w3.org/2000/svg">
<rect width="94" height="94" rx="16" fill="#98DADE"/>
<path fill-rule="evenodd" clip-rule="evenodd" d="M28.4554 24.2241C28.4406 24.0493 28.3915 23.8792 28.311 23.7234C28.2304 23.5676 28.1199 23.4292 27.9859 23.3161C27.8518 23.203 27.6968 23.1174 27.5296 23.0642C27.3625 23.011 27.1865 22.9913 27.0118 23.0061L24.3502 23.2331C23.9975 23.2631 23.6711 23.4318 23.4427 23.7022C23.2143 23.9727 23.1027 24.3227 23.1322 24.6755L23.5716 29.8424C23.3795 29.9763 23.226 30.1585 23.1265 30.3705C23.027 30.5826 22.985 30.8171 23.0048 31.0504C23.0245 31.2838 23.1053 31.5079 23.239 31.7002C23.3727 31.8925 23.5547 32.0463 23.7666 32.1461L24.234 37.6509C24.2488 37.8257 24.2979 37.996 24.3786 38.1519C24.4592 38.3078 24.5698 38.4462 24.704 38.5593C24.8382 38.6725 24.9934 38.758 25.1607 38.8111C25.328 38.8642 25.5041 38.8838 25.679 38.8688L28.3406 38.6418C28.693 38.6115 29.0191 38.4427 29.2472 38.1723C29.4753 37.9018 29.5868 37.552 29.5572 37.1995L29.0644 31.3955C29.7446 31.2736 30.4137 31.1578 31.0716 31.0483C31.2132 33.2518 31.6191 36.9898 32.371 40.5101C32.8504 42.7537 33.5075 45.0961 34.4209 46.939C34.875 47.8578 35.4653 48.798 36.2465 49.5405C36.9383 50.1976 37.8718 50.7785 39.0256 50.9307V56.716L38.5916 56.5597L38.2938 56.4529C36.9517 55.9721 35.5868 55.4833 34.5465 55.2203C34.0403 55.092 33.2751 54.9251 32.5246 54.9919C31.8838 55.0405 31.2724 55.2806 30.7698 55.681C30.426 55.961 30.1495 56.3144 29.9604 56.7154C29.7713 57.1164 29.6746 57.5547 29.6774 57.998C29.6774 59.0971 30.0526 61.9243 30.3718 64.1826C30.5686 65.5766 30.7734 66.9695 30.9861 68.3612L31.0289 68.6404L31.0409 68.7138L31.0435 68.7325V68.7392L33.6838 68.3305L31.0449 68.7405C31.146 69.3888 31.4822 69.9773 31.9893 70.3936C32.4965 70.8099 33.1392 71.0249 33.7948 70.9977C34.4504 70.9704 35.073 70.7028 35.5439 70.2459C36.0149 69.7889 36.3011 69.1746 36.348 68.5202L36.8421 61.6078C38.3245 62.1393 40.0579 62.7523 41.7673 63.2331C43.4674 63.7112 45.333 64.1145 47.0384 64.1145C48.7438 64.1145 50.6095 63.7112 52.3109 63.2331C54.0069 62.7563 55.723 62.1487 57.1987 61.6212L57.7302 68.5349C57.7809 69.1876 58.0696 69.799 58.5414 70.2529C59.0132 70.7068 59.6353 70.9716 60.2896 70.997C60.9438 71.0223 61.5845 70.8065 62.0901 70.3906C62.5957 69.9746 62.9309 69.3874 63.032 68.7405L60.3931 68.3305L63.0333 68.7392V68.7312L63.0373 68.7125L63.048 68.639L63.0908 68.3586C63.3033 66.9673 63.5081 65.5748 63.7051 64.1812C64.0256 61.923 64.3995 59.0958 64.3995 57.998C64.3995 57.2101 64.0924 56.318 63.3084 55.6797C62.8054 55.279 62.1936 55.0389 61.5523 54.9906C60.8018 54.9238 60.0365 55.0907 59.5317 55.2176C58.4901 55.482 57.1266 55.9708 55.7844 56.4516L55.4866 56.5584L55.0512 56.7146V50.9361C57.5753 50.6543 59.1044 48.6084 59.9484 46.9804C60.9246 45.0947 61.563 42.7109 61.9957 40.4553C62.6741 36.931 62.9425 33.2305 63.0293 31.0643C63.6792 31.1712 64.3403 31.2842 65.0125 31.4035L64.5197 37.1981C64.4901 37.5509 64.6018 37.9009 64.8302 38.1714C65.0585 38.4418 65.3849 38.6105 65.7376 38.6404L68.3992 38.8675C68.752 38.897 69.102 38.7854 69.3725 38.557C69.6429 38.3286 69.8116 38.0022 69.8415 37.6495L70.3103 32.1447C70.5228 32.0455 70.7054 31.892 70.8397 31.6997C70.9739 31.5074 71.055 31.283 71.0748 31.0493C71.0946 30.8156 71.0523 30.5808 70.9523 30.3687C70.8523 30.1565 70.6981 29.9745 70.5053 29.841L70.946 24.6741C70.9755 24.3212 70.8637 23.9709 70.635 23.7004C70.4064 23.43 70.0796 23.2614 69.7267 23.2318L67.0664 23.0048C66.8917 22.99 66.7157 23.0097 66.5486 23.0629C66.3814 23.1161 66.2264 23.2016 66.0923 23.3147C65.9583 23.4278 65.8478 23.5662 65.7673 23.722C65.6867 23.8778 65.6376 24.048 65.6228 24.2227L65.2395 28.7313C64.4051 28.5845 63.5695 28.4442 62.7328 28.3106C62.5332 27.9486 62.2523 27.6379 61.9122 27.4029C61.5721 27.1679 61.1821 27.0151 60.7729 26.9564C60.3636 26.8978 59.9464 26.9349 59.554 27.0649C59.1616 27.1949 58.8047 27.4143 58.5114 27.7056C50.3958 26.6813 43.5248 26.6827 35.5521 27.6923C35.2588 27.4054 34.9034 27.1899 34.5134 27.0625C34.1235 26.9351 33.7094 26.8993 33.3033 26.9578C32.8973 27.0163 32.5101 27.1676 32.172 27.3999C31.8338 27.6322 31.5537 27.9392 31.3534 28.2972C30.5298 28.4281 29.6912 28.5697 28.8374 28.7219L28.4554 24.2241ZM37.594 39.395C36.9726 36.3895 36.5656 33.3436 36.3761 30.2804C43.7625 29.3816 50.1928 29.3816 57.7102 30.2991C57.6607 32.0779 57.4324 35.9001 56.75 39.4471C56.3493 41.5317 55.8285 43.3212 55.2048 44.5245C54.7801 45.3431 54.4903 45.5728 54.3929 45.6276H39.8857C39.7308 45.466 39.4904 45.1388 39.2073 44.5672C38.5903 43.3212 38.0427 41.4917 37.594 39.395ZM53.048 36.9471C53.048 38.5409 52.4149 40.0695 51.2879 41.1965C50.1608 42.3235 48.6323 42.9567 47.0384 42.9567C45.4446 42.9567 43.916 42.3235 42.789 41.1965C41.662 40.0695 41.0288 38.5409 41.0288 36.9471C41.0288 35.3532 41.662 33.8246 42.789 32.6976C43.916 31.5706 45.4446 30.9375 47.0384 30.9375C48.6323 30.9375 50.1608 31.5706 51.2879 32.6976C52.4149 33.8246 53.048 35.3532 53.048 36.9471Z" fill="#1B99A0"/>
</svg>
