<svg width="84" height="84" viewBox="0 0 84 84" fill="none" xmlns="http://www.w3.org/2000/svg">
<rect width="84" height="84" rx="42" fill="#C0E3E9"/>
<path d="M42 62.6667C41.4698 62.6662 40.9614 62.4552 40.5867 62.08L22.5334 43.9733C20.0903 41.4809 18.7219 38.13 18.7219 34.64C18.7219 31.15 20.0903 27.799 22.5334 25.3067C25.0088 22.8315 28.3661 21.4409 31.8667 21.4409C35.3673 21.4409 38.7246 22.8315 41.2 25.3067L42 26L42.7467 25.2533C43.9706 24.016 45.4285 23.0345 47.0355 22.3661C48.6424 21.6977 50.3663 21.3557 52.1067 21.36C53.8452 21.3522 55.568 21.69 57.1748 22.3538C58.7816 23.0176 60.2405 23.9941 61.4667 25.2267C63.9097 27.719 65.2781 31.07 65.2781 34.56C65.2781 38.05 63.9097 41.4009 61.4667 43.8933L43.4134 62C43.2346 62.2003 43.0173 62.3625 42.7745 62.4771C42.5317 62.5916 42.2683 62.6561 42 62.6667ZM31.8934 25.3333C30.6822 25.3245 29.4814 25.5556 28.36 26.0133C27.2387 26.471 26.2191 27.1462 25.36 28C23.629 29.7391 22.6572 32.0929 22.6572 34.5467C22.6572 37.0004 23.629 39.3542 25.36 41.0933L42 57.84L58.6134 41.1467C59.4737 40.2873 60.1562 39.2668 60.6218 38.1434C61.0875 37.0201 61.3272 35.816 61.3272 34.6C61.3272 33.384 61.0875 32.1799 60.6218 31.0566C60.1562 29.9332 59.4737 28.9127 58.6134 28.0533C57.761 27.1979 56.7464 26.5214 55.6291 26.0635C54.5117 25.6056 53.3142 25.3755 52.1067 25.3867C50.8956 25.3778 49.6947 25.609 48.5733 26.0666C47.452 26.5243 46.4324 27.1995 45.5734 28.0533L43.4134 30.2133C43.0318 30.5753 42.526 30.7771 42 30.7771C41.4741 30.7771 40.9682 30.5753 40.5867 30.2133L38.4267 28.0533C37.572 27.1899 36.5544 26.5049 35.4329 26.0379C34.3113 25.571 33.1082 25.3315 31.8934 25.3333Z" fill="#18A0B0"/>
</svg>
