<svg width="94" height="94" viewBox="0 0 94 94" fill="none" xmlns="http://www.w3.org/2000/svg">
<rect width="94" height="94" rx="16" fill="#AAA6F5"/>
<path d="M32.1328 63.3535H46.9993" stroke="#665EFC" stroke-width="6" stroke-linecap="round"/>
<path d="M17.2657 61.3717C17.2657 62.1603 17.5789 62.9166 18.1365 63.4742C18.6941 64.0318 19.4504 64.345 20.239 64.345C21.0275 64.345 21.7838 64.0318 22.3414 63.4742C22.899 62.9166 23.2123 62.1603 23.2123 61.3717C23.2123 60.5832 22.899 59.8269 22.3414 59.2693C21.7838 58.7117 21.0275 58.3984 20.239 58.3984C19.4504 58.3984 18.6941 58.7117 18.1365 59.2693C17.5789 59.8269 17.2657 60.5832 17.2657 61.3717Z" fill="#665EFC"/>
<path d="M17.2657 61.3717C17.2657 62.1603 17.5789 62.9166 18.1365 63.4742C18.6941 64.0318 19.4504 64.345 20.239 64.345C21.0275 64.345 21.7838 64.0318 22.3414 63.4742C22.899 62.9166 23.2123 62.1603 23.2123 61.3717C23.2123 60.5832 22.899 59.8269 22.3414 59.2693C21.7838 58.7117 21.0275 58.3984 20.239 58.3984C19.4504 58.3984 18.6941 58.7117 18.1365 59.2693C17.5789 59.8269 17.2657 60.5832 17.2657 61.3717Z" fill="#665EFC"/>
<path d="M17.2657 61.3717C17.2657 62.1603 17.5789 62.9166 18.1365 63.4742C18.6941 64.0318 19.4504 64.345 20.239 64.345C21.0275 64.345 21.7838 64.0318 22.3414 63.4742C22.899 62.9166 23.2123 62.1603 23.2123 61.3717C23.2123 60.5832 22.899 59.8269 22.3414 59.2693C21.7838 58.7117 21.0275 58.3984 20.239 58.3984C19.4504 58.3984 18.6941 58.7117 18.1365 59.2693C17.5789 59.8269 17.2657 60.5832 17.2657 61.3717Z" stroke="#665EFC" stroke-width="6" stroke-linecap="round" stroke-linejoin="round"/>
<path d="M17.2657 61.3717C17.2657 62.1603 17.5789 62.9166 18.1365 63.4742C18.6941 64.0318 19.4504 64.345 20.239 64.345C21.0275 64.345 21.7838 64.0318 22.3414 63.4742C22.899 62.9166 23.2123 62.1603 23.2123 61.3717C23.2123 60.5832 22.899 59.8269 22.3414 59.2693C21.7838 58.7117 21.0275 58.3984 20.239 58.3984C19.4504 58.3984 18.6941 58.7117 18.1365 59.2693C17.5789 59.8269 17.2657 60.5832 17.2657 61.3717Z" stroke="#665EFC" stroke-width="6" stroke-linecap="round" stroke-linejoin="round"/>
<path d="M47.9904 47.4961L32.1328 63.3536" stroke="#665EFC" stroke-width="6" stroke-linecap="round"/>
<ellipse cx="65.3361" cy="55.425" rx="11.3982" ry="11.8937" fill="#665EFC"/>
<path d="M47.9911 47.4947L67.8131 26.6816" stroke="#665EFC" stroke-width="6" stroke-linecap="round"/>
<path d="M48.003 46.504C48.003 46.504 43.8696 30.6465 45.3302 30.6465C46.7908 30.6465 62.8575 38.3819 62.8575 38.3819" stroke="#665EFC" stroke-width="6" stroke-linecap="round"/>
</svg>
