<svg width="25" height="24" viewBox="0 0 25 24" fill="none" xmlns="http://www.w3.org/2000/svg">
<path d="M12.5 20.75C12.3019 20.7474 12.1126 20.6676 11.9725 20.5275C11.8324 20.3874 11.7526 20.1981 11.75 20V4C11.75 3.80109 11.829 3.61032 11.9697 3.46967C12.1103 3.32902 12.3011 3.25 12.5 3.25C12.6989 3.25 12.8897 3.32902 13.0303 3.46967C13.171 3.61032 13.25 3.80109 13.25 4V20C13.2474 20.1981 13.1676 20.3874 13.0275 20.5275C12.8874 20.6676 12.6981 20.7474 12.5 20.75Z" fill="#18A0B0"/>
<path d="M14 18.75H7.5C7.30109 18.75 7.11032 18.671 6.96967 18.5303C6.82902 18.3897 6.75 18.1989 6.75 18C6.75 17.8011 6.82902 17.6103 6.96967 17.4697C7.11032 17.329 7.30109 17.25 7.5 17.25H14C14.6615 17.3089 15.3199 17.1064 15.8339 16.6859C16.3479 16.2653 16.6768 15.6601 16.75 15C16.6768 14.3399 16.3479 13.7347 15.8339 13.3141C15.3199 12.8935 14.6615 12.691 14 12.75H11C10.4745 12.7839 9.94746 12.7136 9.44915 12.5433C8.95085 12.373 8.49107 12.106 8.0962 11.7576C7.70134 11.4092 7.37915 10.9863 7.14814 10.513C6.91712 10.0398 6.78182 9.52562 6.75 8.99998C6.78182 8.47434 6.91712 7.96016 7.14814 7.48694C7.37915 7.01371 7.70134 6.59076 8.0962 6.24235C8.49107 5.89394 8.95085 5.62692 9.44915 5.45663C9.94746 5.28633 10.4745 5.21611 11 5.24998H16.5C16.6989 5.24998 16.8897 5.329 17.0303 5.46965C17.171 5.61031 17.25 5.80107 17.25 5.99998C17.25 6.1989 17.171 6.38966 17.0303 6.53031C16.8897 6.67097 16.6989 6.74998 16.5 6.74998H11C10.3385 6.69103 9.68013 6.89353 9.1661 7.3141C8.65206 7.73468 8.32321 8.33987 8.25 8.99998C8.32321 9.6601 8.65206 10.2653 9.1661 10.6859C9.68013 11.1064 10.3385 11.3089 11 11.25H14C14.5255 11.2161 15.0525 11.2863 15.5508 11.4566C16.0492 11.6269 16.5089 11.8939 16.9038 12.2423C17.2987 12.5908 17.6208 13.0137 17.8519 13.4869C18.0829 13.9602 18.2182 14.4743 18.25 15C18.2182 15.5256 18.0829 16.0398 17.8519 16.513C17.6208 16.9863 17.2987 17.4092 16.9038 17.7576C16.5089 18.106 16.0492 18.373 15.5508 18.5433C15.0525 18.7136 14.5255 18.7839 14 18.75Z" fill="#18A0B0"/>
</svg>
