<svg width="32" height="32" viewBox="0 0 32 32" fill="none" xmlns="http://www.w3.org/2000/svg">
<rect width="32" height="32" rx="8" fill="#F5F5F5" fill-opacity="0.68"/>
<path d="M21.5 18.2505C20.9877 18.2523 20.4831 18.3756 20.0276 18.6103C19.5722 18.845 19.1789 19.1843 18.88 19.6005L13.59 17.0005C13.6931 16.677 13.747 16.3399 13.75 16.0005C13.747 15.661 13.6931 15.3239 13.59 15.0005L18.88 12.4005C19.3362 13.0193 19.9982 13.4552 20.7469 13.6296C21.4957 13.8041 22.2821 13.7058 22.9649 13.3523C23.6477 12.9989 24.182 12.4135 24.4717 11.7014C24.7615 10.9892 24.7878 10.1971 24.5458 9.46734C24.3038 8.73758 23.8095 8.11807 23.1517 7.72016C22.4938 7.32225 21.7156 7.17205 20.9569 7.29654C20.1982 7.42104 19.5089 7.81207 19.0127 8.39935C18.5165 8.98663 18.2461 9.73164 18.25 10.5005C18.2524 10.6682 18.2691 10.8355 18.3 11.0005L12.83 13.7505C12.5306 13.4334 12.1694 13.181 11.7686 13.009C11.3679 12.837 10.9361 12.749 10.5 12.7505C9.63805 12.7505 8.8114 13.0929 8.2019 13.7024C7.59241 14.3118 7.25 15.1385 7.25 16.0005C7.25 16.8624 7.59241 17.6891 8.2019 18.2985C8.8114 18.908 9.63805 19.2505 10.5 19.2505C10.9361 19.2519 11.3679 19.1639 11.7686 18.9919C12.1694 18.8199 12.5306 18.5676 12.83 18.2505L18.3 21.0005C18.2685 21.1687 18.2518 21.3393 18.25 21.5105C18.25 22.1532 18.4406 22.7816 18.7977 23.3161C19.1548 23.8505 19.6624 24.2671 20.2563 24.5131C20.8501 24.759 21.5036 24.8234 22.134 24.698C22.7645 24.5726 23.3436 24.2631 23.7981 23.8085C24.2526 23.354 24.5621 22.7749 24.6876 22.1445C24.813 21.5141 24.7486 20.8606 24.5026 20.2667C24.2566 19.6729 23.8401 19.1653 23.3056 18.8082C22.7711 18.4511 22.1428 18.2605 21.5 18.2605V18.2505ZM21.5 8.75045C21.8461 8.75045 22.1845 8.85309 22.4722 9.04538C22.76 9.23767 22.9843 9.51099 23.1168 9.83076C23.2492 10.1505 23.2839 10.5024 23.2164 10.8419C23.1488 11.1813 22.9822 11.4931 22.7374 11.7379C22.4927 11.9826 22.1809 12.1493 21.8414 12.2168C21.5019 12.2844 21.1501 12.2497 20.8303 12.1172C20.5105 11.9848 20.2372 11.7605 20.0449 11.4727C19.8526 11.1849 19.75 10.8466 19.75 10.5005C19.7526 10.0371 19.9378 9.59354 20.2655 9.26592C20.5931 8.93829 21.0367 8.75308 21.5 8.75045ZM10.5 17.7505C10.1539 17.7505 9.81554 17.6478 9.52775 17.4555C9.23997 17.2632 9.01566 16.9899 8.88321 16.6701C8.75076 16.3504 8.7161 15.9985 8.78363 15.659C8.85115 15.3196 9.01782 15.0078 9.26256 14.763C9.50731 14.5183 9.81912 14.3516 10.1586 14.2841C10.4981 14.2166 10.8499 14.2512 11.1697 14.3837C11.4895 14.5161 11.7628 14.7404 11.9551 15.0282C12.1474 15.316 12.25 15.6543 12.25 16.0005C12.2474 16.4638 12.0622 16.9074 11.7345 17.235C11.4069 17.5626 10.9633 17.7478 10.5 17.7505ZM21.5 23.2505C21.1539 23.2505 20.8155 23.1478 20.5278 22.9555C20.24 22.7632 20.0157 22.4899 19.8832 22.1701C19.7508 21.8504 19.7161 21.4985 19.7836 21.159C19.8511 20.8196 20.0178 20.5078 20.2626 20.263C20.5073 20.0183 20.8191 19.8516 21.1586 19.7841C21.4981 19.7166 21.8499 19.7512 22.1697 19.8837C22.4895 20.0161 22.7628 20.2404 22.9551 20.5282C23.1474 20.816 23.25 21.1543 23.25 21.5005C23.2474 21.9638 23.0622 22.4074 22.7345 22.735C22.4069 23.0626 21.9633 23.2478 21.5 23.2505Z" fill="#424242"/>
</svg>
