<svg width="94" height="94" viewBox="0 0 94 94" fill="none" xmlns="http://www.w3.org/2000/svg">
<rect width="94" height="94" rx="16" fill="#DB96EC"/>
<path d="M44.7489 33.7833C41.941 34.0668 40.469 34.7991 38.5216 36.8542C37.0497 38.3896 36.2571 39.6416 33.902 43.9408C31.479 48.3818 30.6638 49.681 29.4636 51.0038C28.4219 52.1613 27.5841 52.7518 26.5198 53.1534C25.4102 53.5314 24.5497 54.3109 24.0741 55.303C23.7118 56.0353 23.6665 56.2951 23.6665 57.3109C23.6665 58.2558 23.7344 58.6101 23.9835 59.1298C24.5949 60.3345 25.3875 60.9959 26.633 61.3266L27.3576 61.5392L27.335 62.6022C27.2897 64.4684 28.1728 66.5471 29.3957 67.4684C30.8902 68.6022 34.1964 69.4762 39.2462 70.0904C41.1257 70.303 48.825 70.4211 50.4328 70.2558C52.0406 70.0904 52.6973 69.807 53.3767 68.9802C54.0107 68.2243 54.2372 67.5629 54.2598 66.4762C54.2824 65.366 53.8748 64.4684 53.1049 63.9959C52.6294 63.6888 52.5161 63.6888 47.9419 63.6888C43.1411 63.6652 41.556 63.5471 38.9518 62.9566C37.8649 62.7203 37.5931 62.5077 37.729 61.9881C37.8422 61.5156 38.0913 61.4447 39.0877 61.681C41.6013 62.2715 43.0053 62.3896 47.9419 62.3896H52.7652L53.4219 62.7676C54.6901 63.5471 55.46 65.0117 55.46 66.6416C55.46 67.7991 55.2562 68.4605 54.6221 69.3345C54.1239 70.0196 54.1013 70.0668 54.3957 70.0668C55.143 70.0668 58.6529 69.4526 60.1248 69.0511C63.1366 68.2479 64.4047 67.3503 65.2879 65.366C65.6955 64.492 65.7181 64.2794 65.7181 63.0274V61.6337L66.4201 61.4684C67.5297 61.2085 68.5261 60.4054 69.0469 59.3188C69.4319 58.5392 69.4998 58.2794 69.4998 57.3818C69.4998 56.2243 69.2281 55.4684 68.5261 54.5471C68.1411 54.051 67.6203 53.7203 65.9672 52.9644C63.9065 52.0195 62.4573 50.1062 59.219 44.1298C56.5469 39.1928 55.0524 37.114 52.8105 35.366C51.7009 34.492 50.3649 34.0668 48.2136 33.8542C46.4926 33.618 46.4926 33.618 44.7489 33.7833ZM38.8839 54.807V58.5865H36.5741C35.2834 58.5865 33.9926 58.6337 33.6303 58.7046L33.0189 58.8227L33.6982 58.2085C35.6683 56.4369 36.3703 55.6101 37.027 54.2873C37.6384 53.0589 38.748 51.0274 38.8386 51.0274C38.8612 51.0274 38.8839 52.7282 38.8839 54.807ZM56.0488 54.0747C56.796 55.6337 57.4301 56.366 59.4908 58.2085L60.1701 58.8227L59.5587 58.7046C59.219 58.6573 57.9056 58.5865 56.6149 58.5865H54.3051V54.7833L54.3277 50.9802L54.8033 51.7597C55.075 52.1849 55.6411 53.2479 56.0488 54.0747Z" fill="#C93FEA"/>
<path d="M43 24.3333C43 25.2174 43.3512 26.0652 43.9763 26.6904C44.6014 27.3155 45.4493 27.6667 46.3333 27.6667C47.2174 27.6667 48.0652 27.3155 48.6904 26.6904C49.3155 26.0652 49.6667 25.2174 49.6667 24.3333C49.6667 23.4493 49.3155 22.6014 48.6904 21.9763C48.0652 21.3512 47.2174 21 46.3333 21C45.4493 21 44.6014 21.3512 43.9763 21.9763C43.3512 22.6014 43 23.4493 43 24.3333Z" fill="#C93FEA"/>
<path d="M43 24.3333C43 25.2174 43.3512 26.0652 43.9763 26.6904C44.6014 27.3155 45.4493 27.6667 46.3333 27.6667C47.2174 27.6667 48.0652 27.3155 48.6904 26.6904C49.3155 26.0652 49.6667 25.2174 49.6667 24.3333C49.6667 23.4493 49.3155 22.6014 48.6904 21.9763C48.0652 21.3512 47.2174 21 46.3333 21C45.4493 21 44.6014 21.3512 43.9763 21.9763C43.3512 22.6014 43 23.4493 43 24.3333Z" fill="#C93FEA"/>
<path d="M43 24.3333C43 25.2174 43.3512 26.0652 43.9763 26.6904C44.6014 27.3155 45.4493 27.6667 46.3333 27.6667C47.2174 27.6667 48.0652 27.3155 48.6904 26.6904C49.3155 26.0652 49.6667 25.2174 49.6667 24.3333C49.6667 23.4493 49.3155 22.6014 48.6904 21.9763C48.0652 21.3512 47.2174 21 46.3333 21C45.4493 21 44.6014 21.3512 43.9763 21.9763C43.3512 22.6014 43 23.4493 43 24.3333Z" stroke="#C93FEA" stroke-width="7" stroke-linecap="round" stroke-linejoin="round"/>
<path d="M43 24.3333C43 25.2174 43.3512 26.0652 43.9763 26.6904C44.6014 27.3155 45.4493 27.6667 46.3333 27.6667C47.2174 27.6667 48.0652 27.3155 48.6904 26.6904C49.3155 26.0652 49.6667 25.2174 49.6667 24.3333C49.6667 23.4493 49.3155 22.6014 48.6904 21.9763C48.0652 21.3512 47.2174 21 46.3333 21C45.4493 21 44.6014 21.3512 43.9763 21.9763C43.3512 22.6014 43 23.4493 43 24.3333Z" stroke="#C93FEA" stroke-width="7" stroke-linecap="round" stroke-linejoin="round"/>
</svg>
